<?xml version="1.0" encoding="UTF-8" standalone="no"?>
<svg
   xmlns:dc="http://purl.org/dc/elements/1.1/"
   xmlns:cc="http://creativecommons.org/ns#"
   xmlns:rdf="http://www.w3.org/1999/02/22-rdf-syntax-ns#"
   xmlns:svg="http://www.w3.org/2000/svg"
   xmlns="http://www.w3.org/2000/svg"
   xmlns:sodipodi="http://sodipodi.sourceforge.net/DTD/sodipodi-0.dtd"
   xmlns:inkscape="http://www.inkscape.org/namespaces/inkscape"
   viewBox="0 0 144 144"
   x="0px"
   y="0px"
   version="1.1"
   id="svg90"
   sodipodi:docname="noun_762411_cc.svg"
   width="144"
   height="144"
   inkscape:version="0.92.2 5c3e80d, 2017-08-06">
  <metadata
     id="metadata96">
    <rdf:RDF>
      <cc:Work
         rdf:about="">
        <dc:format>image/svg+xml</dc:format>
        <dc:type
           rdf:resource="http://purl.org/dc/dcmitype/StillImage" />
        <dc:title></dc:title>
      </cc:Work>
    </rdf:RDF>
  </metadata>
  <defs
     id="defs94" />
  <sodipodi:namedview
     pagecolor="#ffffff"
     bordercolor="#666666"
     borderopacity="1"
     objecttolerance="10"
     gridtolerance="10"
     guidetolerance="10"
     inkscape:pageopacity="0"
     inkscape:pageshadow="2"
     inkscape:window-width="640"
     inkscape:window-height="480"
     id="namedview92"
     showgrid="false"
     fit-margin-top="10"
     fit-margin-left="10"
     fit-margin-right="10"
     fit-margin-bottom="10"
     inkscape:zoom="1.475"
     inkscape:cx="54"
     inkscape:cy="56"
     inkscape:window-x="0"
     inkscape:window-y="0"
     inkscape:window-maximized="0"
     inkscape:current-layer="svg90" />
  <path
     d="m 93.761017,7.9661017 h -55.1 c -5,0 -9,4.0000003 -9,9.0000003 V 122.9661 c 0,5 4,9 9,9 h 70.000003 c 5,0 9,-4 9,-9 V 31.866102 Z m -0.1,5.6000003 18.400003,18.4 H 98.661017 c -2.8,0 -5,-2.2 -5,-5 z M 113.66102,122.9661 c 0,2.8 -2.2,5 -5,5 H 38.661017 c -2.8,0 -5,-2.2 -5,-5 V 16.966102 c 0,-2.8 2.2,-5 5,-5 h 51 v 15 c 0,5 4,9 9,9 H 113.66102 Z M 73.961017,46.566102 c -7.7,0 -14.4,6.5 -14.4,13.9 0,1.1 0.9,2 2,2 1.1,0 2,-0.9 2,-2 0,-4.7 4.3,-9.9 10.4,-9.9 6.8,0 9.9,5 9.9,9.6 0,3.6 -1,6.1 -3.1,7.5 -8.4,5.5 -8.3,10.7 -8.3,13.8 v 0.5 c 0,1.1 0.9,2 2,2 1.1,0 2,-0.9 2,-2 v -0.6 c 0,-3.3 0.4,-6.4 6.5,-10.4 2.2,-1.5 4.9,-4.5 4.9,-10.8 -0.1,-7.8 -6,-13.6 -13.9,-13.6 z m 0.3,41.3 c -1.1,0 -2,0.9 -2,2 0,1.1 0.9,2 2,2 1.1,0 2,-0.9 2,-2 0,-1.1 -0.9,-2 -2,-2 z"
     id="path84"
     inkscape:connector-curvature="0" />
</svg>
